# xmcd
#
# Track frame offsets:
#	150
#	13682
#	25955
#	38361
#	52008
#	64626
#	74088
#	88219
#	98956
#	108742
#	120070
#	133241
#	146358
#	157041
#	167934
#	181181
#	193778
#	209654
#	224805
#	239435
#
# Disc length: 3393 seconds
#
# Revision: 2
# Processed by: cddbd v1.5.2PL0 Copyright (c) Steve Scherf et al.
# Submitted via: audiograbber 1.83.01
#
DISCID=330d3f14
DTITLE=Frankie Laine, Tennessee Ernie Ford, Johnny Ray and Johnny Horton - Just T
DTITLE=racks - Sing the Hits of: Frankie Laine, Tennessee Ernie Ford, Johnny Ra
DTITLE=y and Johnny Horton - JTG 032
DYEAR=1990
DGENRE=Country
TTITLE0=Frankie Laine - That Lucky Old Sun
TTITLE1=Frankie Laine - The Cry Of The Wild Goose
TTITLE2=Frankie Laine - That's My Desire
TTITLE3=Frankie Laine - Moonlight Gambler
TTITLE4=Frankie Laine - On The Sunny Side Of The Street
TTITLE5=Tennessee Ernie Ford - Sixteen Tons
TTITLE6=Tennessee Ernie Ford - Mule Train
TTITLE7=Tennessee Ernie Ford - Hey, Mr. Cotton Picker
TTITLE8=Tennessee Ernie Ford - Kissin' Bug Boogie
TTITLE9=Tennessee Ernie Ford - Tennessee Local
TTITLE10=Johnny Ray - Cry
TTITLE11=Johnny Ray - Just Walking In The Rain
TTITLE12=Johnny Ray - The Little White Cloud That Cried
TTITLE13=Johnny Ray - Walkin' My Baby Back Home
TTITLE14=Johnny Ray - Please Mr. Sun
TTITLE15=Johnny Horton - The Battle Of New Orleans
TTITLE16=Johnny Horton - Sink The Bismark
TTITLE17=Johnny Horton - North To Alaska
TTITLE18=Johnny Horton - All For The Love Of A Girl
TTITLE19=Johnny Horton - Whispering Pines
EXTD=
EXTT0=
EXTT1=
EXTT2=
EXTT3=
EXTT4=
EXTT5=
EXTT6=
EXTT7=
EXTT8=
EXTT9=
EXTT10=
EXTT11=
EXTT12=
EXTT13=
EXTT14=
EXTT15=
EXTT16=
EXTT17=
EXTT18=
EXTT19=
PLAYORDER=
